<?xml version="1.0" encoding="UTF-8" standalone="no"?>
<!-- Created with Inkscape (http://www.inkscape.org/) -->

<svg
   xmlns:osb="http://www.openswatchbook.org/uri/2009/osb"
   xmlns:dc="http://purl.org/dc/elements/1.1/"
   xmlns:cc="http://creativecommons.org/ns#"
   xmlns:rdf="http://www.w3.org/1999/02/22-rdf-syntax-ns#"
   xmlns:svg="http://www.w3.org/2000/svg"
   xmlns="http://www.w3.org/2000/svg"
   xmlns:sodipodi="http://sodipodi.sourceforge.net/DTD/sodipodi-0.dtd"
   xmlns:inkscape="http://www.inkscape.org/namespaces/inkscape"
   width="744.09448819"
   height="1052.3622047"
   id="svg2989"
   version="1.1"
   inkscape:version="0.48.5 r10040"
   sodipodi:docname="laser_cut_copy_500_5_cm_PDF.pdf">
  <defs
     id="defs2991">
    <linearGradient
       id="linearGradient5211"
       osb:paint="solid">
      <stop
         style="stop-color:#000000;stop-opacity:1;"
         offset="0"
         id="stop5213" />
    </linearGradient>
  </defs>
  <sodipodi:namedview
     id="base"
     pagecolor="#ffffff"
     bordercolor="#ffffff"
     borderopacity="0.0"
     inkscape:pageopacity="0.0"
     inkscape:pageshadow="0"
     inkscape:zoom="0.175"
     inkscape:cx="-1396.3929"
     inkscape:cy="-31.774072"
     inkscape:document-units="px"
     inkscape:current-layer="layer1"
     showgrid="false"
     inkscape:window-width="1535"
     inkscape:window-height="952"
     inkscape:window-x="208"
     inkscape:window-y="63"
     inkscape:window-maximized="0" />
  <metadata
     id="metadata2994">
    <rdf:RDF>
      <cc:Work
         rdf:about="">
        <dc:format>image/svg+xml</dc:format>
        <dc:type
           rdf:resource="http://purl.org/dc/dcmitype/StillImage" />
        <dc:title></dc:title>
      </cc:Work>
    </rdf:RDF>
  </metadata>
  <g
     inkscape:label="Layer 1"
     inkscape:groupmode="layer"
     id="layer1">
    <path
       sodipodi:type="arc"
       style="fill:none;stroke:#000000;stroke-opacity:1"
       id="path5279"
       sodipodi:cx="-5.7142859"
       sodipodi:cy="1052.3622"
       sodipodi:rx="1502.8572"
       sodipodi:ry="1502.8572"
       d="m 1497.1429,1052.3622 a 1502.8572,1502.8572 0 1 1 -3005.7144,0 1502.8572,1502.8572 0 1 1 3005.7144,0 z" />
    <path
       sodipodi:type="arc"
       style="fill:none;stroke:#000000;stroke-opacity:1"
       id="path5289"
       sodipodi:cx="-998.57141"
       sodipodi:cy="53.790752"
       sodipodi:rx="47.142857"
       sodipodi:ry="47.142857"
       d="m -951.42855,53.790752 a 47.142857,47.142857 0 1 1 -94.28575,0 47.142857,47.142857 0 1 1 94.28575,0 z" />
    <path
       sodipodi:type="arc"
       style="fill:none;stroke:#000000;stroke-opacity:1"
       id="path5291"
       sodipodi:cx="1002.8571"
       sodipodi:cy="53.790752"
       sodipodi:rx="48.57143"
       sodipodi:ry="48.57143"
       d="m 1051.4285,53.790752 a 48.57143,48.57143 0 1 1 -97.14281,0 48.57143,48.57143 0 1 1 97.14281,0 z" />
    <path
       sodipodi:type="arc"
       style="fill:none;stroke:#000000;stroke-opacity:1"
       id="path5293"
       sodipodi:cx="1001.4286"
       sodipodi:cy="2050.9336"
       sodipodi:rx="50"
       sodipodi:ry="50"
       d="m 1051.4286,2050.9336 a 50,50 0 1 1 -100.00001,0 50,50 0 1 1 100.00001,0 z" />
    <path
       sodipodi:type="arc"
       style="fill:none;stroke:#000000;stroke-opacity:1"
       id="path5295"
       sodipodi:cx="-1000"
       sodipodi:cy="2052.3623"
       sodipodi:rx="51.42857"
       sodipodi:ry="51.42857"
       d="m -948.57143,2052.3623 a 51.42857,51.42857 0 1 1 -102.85717,0 51.42857,51.42857 0 1 1 102.85717,0 z" />
    <path
       sodipodi:type="arc"
       style="fill:none;stroke:#000000;stroke-opacity:1"
       id="path5303"
       sodipodi:cx="-1415.2238"
       sodipodi:cy="1052.3622"
       sodipodi:rx="50.507626"
       sodipodi:ry="50.507626"
       d="m -1364.7161,1052.3622 a 50.507626,50.507626 0 1 1 -101.0153,0 50.507626,50.507626 0 1 1 101.0153,0 z"
       transform="matrix(0.99984976,0,0,1.0000007,-0.22024706,-7.7875787e-4)" />
    <path
       sodipodi:type="arc"
       style="fill:none;stroke:#000000;stroke-opacity:1"
       id="path5305"
       sodipodi:cx="1415"
       sodipodi:cy="1052.7194"
       sodipodi:rx="47.857143"
       sodipodi:ry="47.857143"
       d="m 1462.8571,1052.7194 a 47.857143,47.857143 0 1 1 -95.7142,0 47.857143,47.857143 0 1 1 95.7142,0 z" />
    <path
       sodipodi:type="arc"
       style="fill:none;stroke:#000000;stroke-opacity:1"
       id="path5307"
       sodipodi:cx="0"
       sodipodi:cy="-363.36661"
       sodipodi:rx="50.002552"
       sodipodi:ry="50.002552"
       d="m 50.002552,-363.36661 a 50.002552,50.002552 0 1 1 -100.005104,0 50.002552,50.002552 0 1 1 100.005104,0 z" />
    <path
       sodipodi:type="arc"
       style="fill:none;stroke:#000000;stroke-opacity:1"
       id="path5309"
       sodipodi:cx="0"
       sodipodi:cy="2466.5757"
       sodipodi:rx="50.002552"
       sodipodi:ry="50.002552"
       d="m 50.002552,2466.5757 a 50.002552,50.002552 0 1 1 -100.005104,0 50.002552,50.002552 0 1 1 100.005104,0 z" />
    <rect
       style="fill:none;stroke:#000000;stroke-width:0.0975735;stroke-linecap:butt;stroke-linejoin:round;stroke-miterlimit:4;stroke-opacity:1;stroke-dasharray:none"
       id="rect3791"
       width="75.976242"
       height="19.950512"
       x="-38.04903"
       y="1042.4501" />
    <rect
       style="fill:none;stroke:#000000;stroke-width:0.09757468;stroke-linecap:butt;stroke-linejoin:round;stroke-miterlimit:4;stroke-opacity:1;stroke-dasharray:none"
       id="rect3791-1"
       width="75.976242"
       height="19.950998"
       x="1014.4307"
       y="-10.02612"
       transform="matrix(0,1,-1,0,0,0)" />
  </g>
</svg>
